<svg width="73" height="73" viewBox="0 0 73 73" fill="none" xmlns="http://www.w3.org/2000/svg">
<path d="M60.9236 20.5812C61.3514 21.0089 61.5938 21.5863 61.5938 22.1923V66.1562C61.5938 67.4181 60.5743 68.4375 59.3125 68.4375H13.6875C12.4257 68.4375 11.4062 67.4181 11.4062 66.1562V6.84375C11.4062 5.58193 12.4257 4.5625 13.6875 4.5625H43.964C44.5699 4.5625 45.1545 4.80488 45.5822 5.23262L60.9236 20.5812ZM56.3326 23.2402L42.916 9.82363V23.2402H56.3326ZM21.1016 9.69531V14.2578H25.6641V9.69531H21.1016ZM25.6641 14.2578V18.8203H30.2266V14.2578H25.6641ZM21.1016 18.8203V23.3828H25.6641V18.8203H21.1016ZM25.6641 23.3828V27.9453H30.2266V23.3828H25.6641ZM21.1016 27.9453V32.5078H25.6641V27.9453H21.1016ZM25.6641 32.5078V37.0703H30.2266V32.5078H25.6641ZM21.1016 37.0703V41.6328H25.6641V37.0703H21.1016ZM21.1016 41.6328V53.0391H30.2266V41.6328H21.1016ZM24.5234 45.0547H26.8047V49.6172H24.5234V45.0547Z" fill="#B350FF"/>
<path d="M40.475 49.178L39.243 45.811C39.1823 45.6617 39.1193 45.4843 39.054 45.279C38.9887 45.0737 38.9233 44.852 38.858 44.614C38.7973 44.852 38.7343 45.076 38.669 45.286C38.6037 45.4913 38.5407 45.671 38.48 45.825L37.255 49.178H40.475ZM43.8 53H42.344C42.1807 53 42.0477 52.9603 41.945 52.881C41.8423 52.797 41.7653 52.6943 41.714 52.573L40.958 50.508H36.765L36.009 52.573C35.9717 52.6803 35.8993 52.7783 35.792 52.867C35.6847 52.9557 35.5517 53 35.393 53H33.923L37.906 42.878H39.824L43.8 53ZM52.7141 42.878L48.6261 53H46.9251L42.8371 42.878H44.3491C44.5124 42.878 44.6454 42.9177 44.7481 42.997C44.8507 43.0763 44.9277 43.179 44.9791 43.305L47.3661 49.479C47.4454 49.6797 47.5201 49.9013 47.5901 50.144C47.6647 50.382 47.7347 50.6317 47.8001 50.893C47.8561 50.6317 47.9167 50.382 47.9821 50.144C48.0474 49.9013 48.1197 49.6797 48.1991 49.479L50.5721 43.305C50.6094 43.1977 50.6817 43.0997 50.7891 43.011C50.9011 42.9223 51.0364 42.878 51.1951 42.878H52.7141ZM55.6518 53H53.7618V42.878H55.6518V53Z" fill="#F6F9FF"/>
</svg>
