<svg width="73" height="73" viewBox="0 0 73 73" fill="none" xmlns="http://www.w3.org/2000/svg">
<path d="M60.9236 20.5812C61.3514 21.0089 61.5938 21.5863 61.5938 22.1923V66.1562C61.5938 67.4181 60.5743 68.4375 59.3125 68.4375H13.6875C12.4257 68.4375 11.4062 67.4181 11.4062 66.1562V6.84375C11.4062 5.58193 12.4257 4.5625 13.6875 4.5625H43.964C44.5699 4.5625 45.1545 4.80488 45.5822 5.23262L60.9236 20.5812ZM56.3326 23.2402L42.916 9.82363V23.2402H56.3326ZM21.1016 9.69531V14.2578H25.6641V9.69531H21.1016ZM25.6641 14.2578V18.8203H30.2266V14.2578H25.6641ZM21.1016 18.8203V23.3828H25.6641V18.8203H21.1016ZM25.6641 23.3828V27.9453H30.2266V23.3828H25.6641ZM21.1016 27.9453V32.5078H25.6641V27.9453H21.1016ZM25.6641 32.5078V37.0703H30.2266V32.5078H25.6641ZM21.1016 37.0703V41.6328H25.6641V37.0703H21.1016ZM21.1016 41.6328V53.0391H30.2266V41.6328H21.1016ZM24.5234 45.0547H26.8047V49.6172H24.5234V45.0547Z" fill="#FFAA01"/>
<path d="M37.017 44.376V47.183H40.559V48.632H37.017V51.495H41.511V53H35.127V42.878H41.511V44.376H37.017ZM46.4697 47.967C46.8151 47.967 47.1161 47.925 47.3727 47.841C47.6294 47.7523 47.8417 47.6287 48.0097 47.47C48.1824 47.3067 48.3107 47.1107 48.3947 46.882C48.4787 46.6487 48.5207 46.3897 48.5207 46.105C48.5207 45.8343 48.4787 45.5893 48.3947 45.37C48.3107 45.1507 48.1847 44.964 48.0167 44.81C47.8487 44.656 47.6364 44.5393 47.3797 44.46C47.1231 44.376 46.8197 44.334 46.4697 44.334H45.0627V47.967H46.4697ZM46.4697 42.878C47.1464 42.878 47.7321 42.9573 48.2267 43.116C48.7214 43.2747 49.1297 43.4963 49.4517 43.781C49.7737 44.0657 50.0117 44.4063 50.1657 44.803C50.3244 45.1997 50.4037 45.6337 50.4037 46.105C50.4037 46.595 50.3221 47.0453 50.1587 47.456C49.9954 47.862 49.7504 48.212 49.4237 48.506C49.0971 48.8 48.6864 49.0287 48.1917 49.192C47.7017 49.3553 47.1277 49.437 46.4697 49.437H45.0627V53H43.1797V42.878H46.4697ZM57.2377 44.719C57.1817 44.817 57.121 44.8893 57.0557 44.936C56.995 44.978 56.918 44.999 56.8247 44.999C56.7267 44.999 56.6194 44.964 56.5027 44.894C56.3907 44.8193 56.2554 44.7377 56.0967 44.649C55.938 44.5603 55.7514 44.481 55.5367 44.411C55.3267 44.3363 55.077 44.299 54.7877 44.299C54.5264 44.299 54.2977 44.3317 54.1017 44.397C53.9057 44.4577 53.74 44.544 53.6047 44.656C53.474 44.768 53.376 44.9033 53.3107 45.062C53.2454 45.216 53.2127 45.3863 53.2127 45.573C53.2127 45.811 53.278 46.0093 53.4087 46.168C53.544 46.3267 53.7214 46.462 53.9407 46.574C54.16 46.686 54.4097 46.7863 54.6897 46.875C54.9697 46.9637 55.2567 47.0593 55.5507 47.162C55.8447 47.26 56.1317 47.3767 56.4117 47.512C56.6917 47.6427 56.9414 47.8107 57.1607 48.016C57.38 48.2167 57.555 48.464 57.6857 48.758C57.821 49.052 57.8887 49.409 57.8887 49.829C57.8887 50.2863 57.8094 50.7157 57.6507 51.117C57.4967 51.5137 57.268 51.8613 56.9647 52.16C56.666 52.454 56.2997 52.6873 55.8657 52.86C55.4317 53.028 54.9347 53.112 54.3747 53.112C54.0527 53.112 53.7354 53.0793 53.4227 53.014C53.11 52.9533 52.809 52.8647 52.5197 52.748C52.235 52.6313 51.9667 52.4913 51.7147 52.328C51.4627 52.1647 51.2387 51.9827 51.0427 51.782L51.5957 50.879C51.6424 50.8137 51.703 50.76 51.7777 50.718C51.8524 50.6713 51.9317 50.648 52.0157 50.648C52.1324 50.648 52.2584 50.697 52.3937 50.795C52.529 50.8883 52.69 50.9933 52.8767 51.11C53.0634 51.2267 53.2804 51.334 53.5277 51.432C53.7797 51.5253 54.0807 51.572 54.4307 51.572C54.9674 51.572 55.3827 51.446 55.6767 51.194C55.9707 50.9373 56.1177 50.571 56.1177 50.095C56.1177 49.829 56.05 49.612 55.9147 49.444C55.784 49.276 55.609 49.136 55.3897 49.024C55.1704 48.9073 54.9207 48.8093 54.6407 48.73C54.3607 48.6507 54.076 48.5643 53.7867 48.471C53.4974 48.3777 53.2127 48.2657 52.9327 48.135C52.6527 48.0043 52.403 47.834 52.1837 47.624C51.9644 47.414 51.787 47.1527 51.6517 46.84C51.521 46.5227 51.4557 46.133 51.4557 45.671C51.4557 45.3023 51.528 44.943 51.6727 44.593C51.822 44.243 52.0367 43.9327 52.3167 43.662C52.5967 43.3913 52.942 43.1743 53.3527 43.011C53.7634 42.8477 54.2347 42.766 54.7667 42.766C55.364 42.766 55.9147 42.8593 56.4187 43.046C56.9227 43.2327 57.352 43.494 57.7067 43.83L57.2377 44.719Z" fill="#F6F9FF"/>
</svg>
