<svg width="73" height="73" viewBox="0 0 73 73" fill="none" xmlns="http://www.w3.org/2000/svg">
<path d="M60.9236 20.5812C61.3514 21.0089 61.5938 21.5863 61.5938 22.1923V66.1562C61.5938 67.4181 60.5743 68.4375 59.3125 68.4375H13.6875C12.4257 68.4375 11.4062 67.4181 11.4062 66.1562V6.84375C11.4062 5.58193 12.4257 4.5625 13.6875 4.5625H43.964C44.5699 4.5625 45.1545 4.80488 45.5822 5.23262L60.9236 20.5812ZM56.3326 23.2402L42.916 9.82363V23.2402H56.3326ZM21.1016 9.69531V14.2578H25.6641V9.69531H21.1016ZM25.6641 14.2578V18.8203H30.2266V14.2578H25.6641ZM21.1016 18.8203V23.3828H25.6641V18.8203H21.1016ZM25.6641 23.3828V27.9453H30.2266V23.3828H25.6641ZM21.1016 27.9453V32.5078H25.6641V27.9453H21.1016ZM25.6641 32.5078V37.0703H30.2266V32.5078H25.6641ZM21.1016 37.0703V41.6328H25.6641V37.0703H21.1016ZM21.1016 41.6328V53.0391H30.2266V41.6328H21.1016ZM24.5234 45.0547H26.8047V49.6172H24.5234V45.0547Z" fill="#4F95FF"/>
<path d="M45.099 41.571C45.099 41.7857 45.0383 41.9817 44.917 42.159L39.723 49.495H44.98V51H37.28V50.258C37.28 50.1647 37.2963 50.076 37.329 49.992C37.3617 49.9033 37.4037 49.8217 37.455 49.747L42.663 42.376H37.609V40.878H45.099V41.571ZM48.4936 51H46.6036V40.878H48.4936V51ZM54.0498 45.967C54.3951 45.967 54.6961 45.925 54.9528 45.841C55.2095 45.7523 55.4218 45.6287 55.5898 45.47C55.7625 45.3067 55.8908 45.1107 55.9748 44.882C56.0588 44.6487 56.1008 44.3897 56.1008 44.105C56.1008 43.8343 56.0588 43.5893 55.9748 43.37C55.8908 43.1507 55.7648 42.964 55.5968 42.81C55.4288 42.656 55.2165 42.5393 54.9598 42.46C54.7031 42.376 54.3998 42.334 54.0498 42.334H52.6428V45.967H54.0498ZM54.0498 40.878C54.7265 40.878 55.3121 40.9573 55.8068 41.116C56.3015 41.2747 56.7098 41.4963 57.0318 41.781C57.3538 42.0657 57.5918 42.4063 57.7458 42.803C57.9045 43.1997 57.9838 43.6337 57.9838 44.105C57.9838 44.595 57.9021 45.0453 57.7388 45.456C57.5755 45.862 57.3305 46.212 57.0038 46.506C56.6771 46.8 56.2665 47.0287 55.7718 47.192C55.2818 47.3553 54.7078 47.437 54.0498 47.437H52.6428V51H50.7598V40.878H54.0498Z" fill="#F6F9FF"/>
</svg>
